<svg width="440" height="420" viewBox="0 0 440 420" fill="none" xmlns="http://www.w3.org/2000/svg">
<g id="cornelius 6">
<g id="legs">
<path id="Polygon 1" d="M141.335 410.792C147.854 410.792 152.343 408.17 155.532 404.228C158.788 400.204 160.745 394.72 161.865 389.027C162.98 383.36 163.232 377.66 163.201 373.354C163.185 371.207 163.099 369.42 163.017 368.174C163.007 368.014 162.996 367.863 162.986 367.721L118.134 359.382C118.133 359.403 118.133 359.423 118.132 359.444C118.092 360.942 118.067 363.089 118.125 365.667C118.24 370.833 118.689 377.687 120.009 384.513C121.336 391.37 123.509 398.025 126.968 402.919C130.371 407.737 134.958 410.792 141.335 410.792Z" fill="#A0D94A" stroke="black" stroke-width="4"/>
<path id="Polygon 2" d="M301.692 412.433C295.161 412.433 290.671 409.843 287.486 405.965C284.235 402.005 282.28 396.61 281.161 391.006C280.047 385.427 279.795 379.815 279.826 375.575C279.842 373.461 279.928 371.701 280.01 370.474C280.021 370.303 280.033 370.142 280.044 369.992L325.025 359.882C325.026 359.889 325.026 359.895 325.026 359.901C325.062 361.433 325.082 363.629 325.018 366.265C324.889 371.548 324.424 378.559 323.085 385.541C321.741 392.556 319.548 399.369 316.071 404.382C312.646 409.32 308.05 412.433 301.692 412.433Z" fill="#A0D94A" stroke="black" stroke-width="4"/>
</g>
<g id="body fill">
<path id="body 2" d="M390.569 216.837C395.205 272.58 386.169 312.219 359.365 337.432C332.48 362.722 287.068 374.136 217.311 371.68C152.863 369.411 106.68 359.15 78.8727 335.492C51.3202 312.051 41.2213 274.884 50.4717 217.024C53.2444 199.681 66.1901 145.807 92.9855 96.3418C119.846 46.7565 160.106 2.5 217.223 2.5C274.577 2.5 316.462 38.9787 344.848 84.3368C373.237 129.698 387.794 183.467 390.569 216.837Z" fill="#FFDF4B" stroke="black" stroke-width="5"/>
</g>
<g id="husk">
<g id="left">
<path d="M51.7518 208.47C29.8357 377.194 149.54 357.403 217.651 370.174C165.191 280.578 97.2503 229.914 51.7518 208.47Z" fill="#A0D94A"/>
<path d="M51.7519 206.022C51.9457 207.619 51.5286 206.924 51.7518 208.47M51.7518 208.47C29.8357 377.194 149.54 357.403 217.651 370.174C165.191 280.578 97.2503 229.914 51.7518 208.47Z" stroke="#00B649" stroke-width="5"/>
</g>
<g id="right">
<path d="M388.681 208.276C409.42 377.042 283.752 362.737 221.444 371.271C274.601 281.224 342.979 230.048 388.681 208.276Z" fill="#A0D94A"/>
<path d="M388.699 205.825C388.493 207.426 388.916 206.727 388.681 208.276M388.681 208.276C409.42 377.042 283.752 362.737 221.444 371.271C274.601 281.224 342.979 230.048 388.681 208.276Z" stroke="#00B649" stroke-width="5"/>
</g>
</g>
<path id="mouth" d="M214 182C221.214 184.696 225.043 184.637 231 182" stroke="black" stroke-width="7" stroke-linecap="round"/>
<ellipse id="right eye" cx="163.935" cy="138.312" rx="10.5846" ry="10.2571" fill="black"/>
<ellipse id="left eye" cx="277.401" cy="138.312" rx="10.5846" ry="10.2571" fill="black"/>
<path id="main body" d="M390.902 216.883C395.538 272.626 386.502 312.265 359.698 337.478C332.813 362.767 287.401 374.182 217.644 371.726C153.196 369.457 107.013 359.195 79.2057 335.538C51.6533 312.097 41.5543 274.93 50.8047 217.07C53.5774 199.727 66.5231 145.853 93.3186 96.3877C120.179 46.8024 160.439 2.5459 217.556 2.5459C274.91 2.5459 316.795 39.0246 345.181 84.3827C373.57 129.744 388.127 183.513 390.902 216.883Z" stroke="black" stroke-width="5"/>
</g>
</svg>
