<svg width="363" height="419" viewBox="0 0 363 419" fill="none" xmlns="http://www.w3.org/2000/svg">
<path d="M103.106 410.94C109.608 410.94 114.086 408.322 117.267 404.386C120.516 400.366 122.469 394.889 123.586 389.203C124.699 383.542 124.951 377.849 124.919 373.548C124.903 371.404 124.817 369.618 124.736 368.374C124.725 368.215 124.715 368.065 124.705 367.924L79.9606 359.596C79.9601 359.615 79.9596 359.635 79.9591 359.654C79.9195 361.151 79.8941 363.295 79.9517 365.87C80.0671 371.03 80.5149 377.876 81.8322 384.694C83.1557 391.544 85.3246 398.19 88.7749 403.079C92.1704 407.89 96.746 410.94 103.106 410.94Z" fill="white" stroke="black" stroke-width="4"/>
<path d="M263.108 412.58C256.594 412.58 252.114 409.995 248.937 406.121C245.694 402.167 243.743 396.778 242.626 391.18C241.515 385.608 241.263 380.003 241.295 375.768C241.31 373.656 241.396 371.898 241.478 370.673C241.489 370.502 241.501 370.342 241.511 370.193L286.385 360.097C286.385 360.102 286.385 360.107 286.385 360.111C286.421 361.642 286.441 363.835 286.377 366.469C286.249 371.746 285.784 378.748 284.449 385.722C283.108 392.729 280.92 399.534 277.45 404.54C274.033 409.472 269.449 412.58 263.108 412.58Z" fill="white" stroke="black" stroke-width="4"/>
<path d="M351.782 217.213C356.407 272.892 347.391 312.485 320.648 337.667C293.824 362.926 248.515 374.327 178.914 371.874C114.609 369.607 68.5306 359.358 40.7867 335.729C13.2967 312.317 3.21969 275.193 12.4496 217.4C15.2162 200.077 28.1331 146.266 54.8691 96.8584C81.6702 47.3298 121.839 3.12793 178.825 3.12793C236.049 3.12793 277.839 39.5618 306.163 84.8674C334.488 130.176 349.013 183.882 351.782 217.213Z" fill="white" stroke="black" stroke-width="5"/>
<path d="M241.236 208.727C241.236 216.714 234.932 224.321 223.889 230.021C212.922 235.681 197.668 239.227 180.736 239.227C163.805 239.227 148.55 235.681 137.584 230.021C126.54 224.321 120.236 216.714 120.236 208.727C120.236 200.739 126.54 193.132 137.584 187.432C148.55 181.772 163.805 178.227 180.736 178.227C197.668 178.227 212.922 181.772 223.889 187.432C234.932 193.132 241.236 200.739 241.236 208.727Z" fill="#F5CAC3" stroke="black" stroke-width="3"/>
<circle cx="150.236" cy="208.227" r="4.5" fill="black"/>
<circle cx="213.236" cy="208.227" r="4.5" fill="black"/>
<ellipse cx="125.656" cy="138.778" rx="10.5611" ry="10.2452" fill="black"/>
<ellipse cx="238.871" cy="138.779" rx="10.5611" ry="10.2452" fill="black"/>
<path d="M352.114 217.259C356.74 272.938 347.724 312.531 320.981 337.713C294.157 362.972 248.847 374.373 179.246 371.92C114.941 369.653 68.8631 359.404 41.1192 335.775C13.6292 312.363 3.55221 275.239 12.7821 217.446C15.5487 200.123 28.4656 146.312 55.2016 96.9043C82.0027 47.3757 122.172 3.17383 179.158 3.17383C236.381 3.17383 278.172 39.6077 306.495 84.9133C334.821 130.222 349.345 183.928 352.114 217.259Z" stroke="black" stroke-width="5"/>
<path d="M33.261 7.12631L60.9746 37.6444C61.852 38.6106 62.8874 39.4203 64.0366 40.039L84.7694 51.2006L58.3683 86.2471L36.4252 54.6147C34.9074 52.4267 34.0706 49.8386 34.0201 47.1761L33.261 7.12631Z" fill="#D9D9D9" stroke="black" stroke-width="3"/>
<path d="M342.15 15.8872L313.207 45.2393C312.291 46.1685 311.223 46.935 310.049 47.5058L288.876 57.805L313.816 93.9082L337.039 63.2053C338.645 61.0816 339.588 58.5301 339.747 55.8719L342.15 15.8872Z" fill="#D9D9D9" stroke="black" stroke-width="3"/>
<ellipse cx="18.9585" cy="31.9618" rx="18.9585" ry="31.9618" transform="matrix(0.984427 -0.175794 0.175434 0.984491 15.9648 156.421)" fill="black"/>
<ellipse cx="18.9585" cy="31.9618" rx="18.9585" ry="31.9618" transform="matrix(0.984427 -0.175794 0.175434 0.984491 8.97998 185.388)" fill="black"/>
<ellipse cx="20.9574" cy="43.4413" rx="20.9574" ry="43.4413" transform="matrix(0.905632 0.424064 -0.423327 0.905977 36.7798 219.675)" fill="black"/>
<ellipse cx="27.4394" cy="251.638" rx="20.4545" ry="42.9501" fill="black"/>
<ellipse cx="277.384" cy="370.999" rx="10.9756" ry="10.4878" fill="black"/>
<ellipse cx="10.9819" cy="16.4715" rx="10.9819" ry="16.4715" transform="matrix(0.6783 0.734785 -0.734068 0.679076 111.987 380.488)" fill="black"/>
<ellipse cx="262.916" cy="401.963" rx="16.4634" ry="10.4878" fill="black"/>
<ellipse cx="16.4659" cy="11.2324" rx="16.4659" ry="11.2324" transform="matrix(0.924724 0.380639 -0.37995 0.925007 83.5356 355.282)" fill="black"/>
<ellipse cx="221.009" cy="51.8694" rx="40.4102" ry="40.9524" fill="black"/>
<ellipse cx="253.936" cy="56.3642" rx="25.4435" ry="24.4716" fill="black"/>
<path d="M245.576 279.433C242.129 242.275 286.136 185.737 308.246 252.886C322.381 266.305 353.842 273.159 344.45 305.948C343.9 307.867 343.506 310.367 342.881 312.263C340.03 320.914 328.086 343.397 310.941 332.995C266.097 363.358 258.927 376.103 240.118 356.193C217.01 349.192 214.899 299.971 245.576 279.433Z" fill="black"/>
</svg>
